<svg xmlns="http://www.w3.org/2000/svg" xmlns:xlink="http://www.w3.org/1999/xlink" width="1080" zoomAndPan="magnify" viewBox="0 0 810 809.999993" height="1080" preserveAspectRatio="xMidYMid meet" version="1.0"><defs><clipPath id="ba197ba543"><path d="M 85.417969 44 L 620 44 L 620 347 L 85.417969 347 Z M 85.417969 44 " clip-rule="nonzero"/></clipPath></defs><g clip-path="url(#ba197ba543)"><path fill="#28c961" d="M 614.988281 329.886719 C 581.6875 306.832031 454.871094 221.078125 370.300781 192.179688 C 367.054688 191.070312 368.054688 186.203125 371.46875 186.5 C 409.324219 189.816406 477 199.105469 520.136719 224.585938 C 522.289062 225.859375 524.925781 224.117188 524.519531 221.636719 C 519.347656 190.367188 486.601562 52.765625 313.039062 79.984375 C 312.921875 80.003906 312.824219 80.023438 312.710938 80.050781 C 307.570312 81.441406 170.304688 118.601562 144.117188 132.148438 C 142.679688 132.886719 142.152344 134.636719 142.914062 136.070312 C 155.589844 159.921875 259.0625 346.96875 367.902344 309.46875 C 367.902344 309.46875 416.382812 291.941406 443.847656 264.785156 C 446.027344 262.628906 449.605469 264.898438 448.605469 267.800781 C 440.75 290.644531 416.636719 338.121094 350.636719 345.207031 C 253.226562 355.664062 208.875 291.449219 208.875 291.449219 C 208.875 291.449219 96.234375 152.746094 84.5625 118.347656 C 84.070312 116.894531 84.714844 115.347656 86.109375 114.726562 C 105.757812 105.972656 248.988281 44.132812 374.015625 44.59375 C 525.574219 45.152344 557.492188 184.730469 557.492188 221.691406 L 558.941406 246.542969 C 558.992188 247.378906 559.355469 248.121094 560 248.640625 C 566.09375 253.507812 599.117188 281.277344 619.300781 326.21875 C 620.515625 328.929688 617.421875 331.570312 614.988281 329.886719 " fill-opacity="1" fill-rule="nonzero"/></g><path fill="#000000" d="M 645.984375 373.296875 C 644.675781 370.125 643.105469 367.234375 641.714844 364.148438 L 565.617188 326.09375 C 604.449219 369.007812 624.117188 420.949219 624.117188 482.148438 C 624.117188 510.109375 618.46875 538.644531 607.203125 567.773438 C 595.9375 596.914062 573.628906 629.132812 540.28125 664.417969 C 506.933594 699.714844 457.148438 717.359375 390.9375 717.359375 C 328.003906 717.359375 273.527344 694.972656 227.503906 650.207031 C 181.480469 605.441406 158.476562 549.425781 158.476562 482.148438 C 158.476562 426.269531 177.042969 373.230469 210.921875 330.734375 C 200.457031 324.410156 191.640625 307.96875 184.382812 296.578125 C 164.175781 319.296875 147.84375 345.199219 135.894531 374.71875 C 121.789062 409.582031 114.730469 445.507812 114.730469 482.5 C 114.730469 519.976562 122.015625 555.671875 136.59375 589.582031 C 151.171875 623.503906 171.285156 653.503906 196.917969 679.597656 C 222.550781 705.6875 252.183594 725.839844 285.820312 740.074219 C 319.441406 754.296875 354.609375 761.410156 391.296875 761.410156 C 428.914062 761.410156 464.667969 754.054688 498.53125 739.367188 C 532.398438 724.660156 561.90625 704.621094 587.078125 679.242188 C 612.234375 653.859375 631.988281 624.09375 646.335938 589.9375 C 660.679688 555.78125 667.855469 519.976562 667.855469 482.5 C 667.855469 445.042969 660.558594 408.640625 645.984375 373.296875 " fill-opacity="1" fill-rule="nonzero"/></svg>