<svg xmlns="http://www.w3.org/2000/svg" xmlns:xlink="http://www.w3.org/1999/xlink" width="1080" zoomAndPan="magnify" viewBox="0 0 810 809.999993" height="1080" preserveAspectRatio="xMidYMid meet" version="1.0"><defs><clipPath id="f75dff230c"><path d="M 85.417969 44 L 620 44 L 620 347 L 85.417969 347 Z M 85.417969 44 " clip-rule="nonzero"/></clipPath></defs><g clip-path="url(#f75dff230c)"><path fill="#28c961" d="M 615.117188 329.886719 C 581.808594 306.832031 454.957031 221.078125 370.367188 192.179688 C 367.121094 191.070312 368.121094 186.203125 371.539062 186.5 C 409.402344 189.816406 477.09375 199.105469 520.238281 224.585938 C 522.394531 225.859375 525.03125 224.117188 524.621094 221.636719 C 519.449219 190.367188 486.699219 52.765625 313.089844 79.984375 C 312.976562 80.003906 312.878906 80.023438 312.765625 80.050781 C 307.621094 81.441406 170.324219 118.601562 144.128906 132.148438 C 142.691406 132.886719 142.167969 134.636719 142.925781 136.070312 C 155.605469 159.921875 259.101562 346.96875 367.96875 309.46875 C 367.96875 309.46875 416.460938 291.941406 443.933594 264.785156 C 446.109375 262.628906 449.691406 264.898438 448.691406 267.800781 C 440.832031 290.644531 416.714844 338.121094 350.699219 345.207031 C 253.269531 355.664062 208.90625 291.449219 208.90625 291.449219 C 208.90625 291.449219 96.238281 152.746094 84.5625 118.347656 C 84.070312 116.894531 84.710938 115.347656 86.109375 114.726562 C 105.761719 105.972656 249.027344 44.132812 374.085938 44.59375 C 525.679688 45.152344 557.601562 184.730469 557.601562 221.691406 L 559.054688 246.542969 C 559.101562 247.378906 559.464844 248.121094 560.113281 248.640625 C 566.207031 253.507812 599.242188 281.277344 619.429688 326.21875 C 620.644531 328.929688 617.546875 331.570312 615.117188 329.886719 " fill-opacity="1" fill-rule="nonzero"/></g><path fill="#ffffff" d="M 646.117188 373.296875 C 644.808594 370.125 643.238281 367.234375 641.847656 364.148438 L 565.730469 326.09375 C 604.574219 369.007812 624.246094 420.949219 624.246094 482.148438 C 624.246094 510.109375 618.59375 538.644531 607.328125 567.773438 C 596.058594 596.914062 573.746094 629.132812 540.386719 664.417969 C 507.035156 699.714844 457.238281 717.359375 391.007812 717.359375 C 328.0625 717.359375 273.570312 694.972656 227.535156 650.207031 C 181.503906 605.441406 158.492188 549.425781 158.492188 482.148438 C 158.492188 426.269531 177.066406 373.230469 210.953125 330.734375 C 200.484375 324.410156 191.667969 307.96875 184.40625 296.578125 C 164.191406 319.296875 147.855469 345.199219 135.90625 374.71875 C 121.796875 409.582031 114.738281 445.507812 114.738281 482.5 C 114.738281 519.976562 122.023438 555.671875 136.605469 589.582031 C 151.1875 623.503906 171.304688 653.503906 196.945312 679.597656 C 222.582031 705.6875 252.222656 725.839844 285.867188 740.074219 C 319.496094 754.296875 354.671875 761.410156 391.371094 761.410156 C 428.996094 761.410156 464.757812 754.054688 498.628906 739.367188 C 532.503906 724.660156 562.019531 704.621094 587.199219 679.242188 C 612.359375 653.859375 632.117188 624.09375 646.472656 589.9375 C 660.816406 555.78125 667.992188 519.976562 667.992188 482.5 C 667.992188 445.042969 660.695312 408.640625 646.117188 373.296875 " fill-opacity="1" fill-rule="nonzero"/></svg>